<?xml version="1.0" encoding="UTF-8"?>
<svg id="Layer_1" xmlns="http://www.w3.org/2000/svg" version="1.1" viewBox="0 0 612 612">
  <!-- Generator: Adobe Illustrator 29.7.1, SVG Export Plug-In . SVG Version: 2.1.1 Build 8)  -->
  <defs>
    <style>
      .st0 {
        fill: #231f20;
      }
    </style>
  </defs>
  <path class="st0" d="M246.17,563.51c-3.23,0-6.5-.54-9.63-1.66-10.62-3.8-17.26-13.39-16.39-23.67l8.8-104.35c-30.77,2.43-75.53,4.45-95.76-2-7.83-2.5-14.38-8.12-17.61-12.18C65.98,357.4,21.31,196.04,43.58,116.33c2.48-8.88,11.06-17.95,20.38-21.57,9.87-3.83,39.9-15.48,184.08-19.24,69.39-1.81,132.69-.91,133.32-.9,14.42.21,25.91,10.93,25.68,23.93-.24,13-12.16,23.4-26.53,23.16-89.04-1.31-239.61,1.45-288.11,13.89-12.79,66.28,24.07,199.98,62.6,252.69,15.3,1.88,55.81.43,93.61-3.59,1.01-.11,2.04-.16,3.06-.16,8.85,0,17.33,3.4,23.26,9.32,5.82,5.82,8.7,13.58,7.95,21.38l-4.32,51.22,80.66-89.88c.31-.34.63-.68.95-1,8.23-8.19,19.98-12.89,32.24-12.89.87,0,1.73.04,2.59.12,37.12,3.34,82.6,4.89,100.83,2.6,6.36-14.69,15.55-47.02,21.58-116.63,4.14-47.77,4.67-89.75,4.68-90.17.15-12.92,11.81-23.3,26.1-23.3.09,0,.19,0,.28,0,14.42.14,25.98,10.79,25.83,23.79-.21,17.92-2.94,176.72-34.79,233.53-3.73,6.65-11.42,12.91-19.12,15.59-25.86,8.98-95.14,4.43-124.18,2.01l-129.73,144.57c-5.07,5.64-12.59,8.73-20.3,8.73Z"/>
  <path class="st0" d="M275.69,353.61c-.91,0-1.82-.03-2.73-.1-11.35-.8-21.54-6.56-27.3-15.41l-74.12-113.9c-9.73-14.95-4.18-34.19,12.4-42.97,16.59-8.77,37.91-3.77,47.64,11.19l49.09,75.44c54.72-58.34,165.92-173.6,226.55-213.37,15.55-10.2,37.32-7.1,48.63,6.93,11.31,14.02,7.87,33.66-7.68,43.85-73.59,48.26-243.88,234.98-245.59,236.86-6.64,7.3-16.53,11.48-26.9,11.48Z"/>
</svg>